<svg width="85" height="85" viewBox="0 0 85 85" xmlns="http://www.w3.org/2000/svg">
<path fill="currentColor" fill-rule="evenodd" clip-rule="evenodd" d="M42.5 85C65.9721 85 85 65.9721 85 42.5C85 19.0279 65.9721 0 42.5 0C19.0279 0 0 19.0279 0 42.5C0 65.9721 19.0279 85 42.5 85ZM20.6562 44.5938L36.3125 60.1562C36.75 60.6562 37.3125 60.9062 38 60.9062C38.6875 60.9062 39.25 60.6562 39.6875 60.1562L67.3438 32.5938C67.7812 32.1562 68 31.5938 68 30.9062C68 30.2188 67.7812 29.6562 67.3438 29.2188L63.875 25.8438C63.4375 25.3438 62.875 25.0938 62.1875 25.0938C61.5625 25.0938 61 25.3438 60.5 25.8438L38 48.3438L27.5 37.8438C27 37.3438 26.4062 37.0938 25.7188 37.0938C25.0938 37.0938 24.5625 37.3438 24.125 37.8438L20.6562 41.2188C20.2188 41.6562 20 42.2188 20 42.9062C20 43.5938 20.2188 44.1562 20.6562 44.5938Z"/>
</svg>